/* XPM */
static char *_bd2b96e642a4492d8bd20b44263ed512TNWt0jaHf4xuzIy[] = {
/* columns rows colors chars-per-pixel */
"64 64 203 2 ",
"   c #1F4267",
".  c #1F4169",
"X  c #214167",
"o  c #24446A",
"O  c #29476A",
"+  c #26496C",
"@  c #2A4C6D",
"#  c #344868",
"$  c #2F516F",
"%  c #30516F",
"&  c #3E576F",
"*  c #2C4D72",
"=  c #324E74",
"-  c #2F5174",
";  c #2F557A",
":  c #325375",
">  c #375975",
",  c #3B5876",
"<  c #34557A",
"1  c #3A567A",
"2  c #36597C",
"3  c #3A5B7D",
"4  c #3F617F",
"5  c #5A4F5F",
"6  c #684F5B",
"7  c #6C555D",
"8  c #78585C",
"9  c #484D64",
"0  c #554D61",
"q  c #44506D",
"w  c #4F536A",
"e  c #585A6D",
"r  c #4C5974",
"t  c #435978",
"y  c #4C5E7A",
"u  c #535A73",
"i  c #6A5967",
"p  c #625A6A",
"a  c #745B64",
"s  c #775F6A",
"d  c #665F73",
"f  c #42627F",
"g  c #49627E",
"h  c #53637C",
"j  c #5A657D",
"k  c #7F6068",
"l  c #666377",
"z  c #64687F",
"x  c #6B697E",
"c  c #776773",
"v  c #7C6A77",
"b  c #72697C",
"n  c #7B6A79",
"m  c #FF6E3F",
"M  c #8F5956",
"N  c #865A5B",
"B  c #955C56",
"V  c #9B5D54",
"C  c #945D59",
"Z  c #B05D4E",
"A  c #AA5E50",
"S  c #8D625F",
"D  c #9C635D",
"F  c #BE644E",
"G  c #A7665D",
"H  c #B26455",
"J  c #BB6651",
"K  c #B76B5C",
"L  c #BB6C5D",
"P  c #BE705F",
"I  c #836065",
"U  c #986865",
"Y  c #956A6C",
"T  c #9B6B6B",
"R  c #846A75",
"E  c #8B6A72",
"W  c #88717A",
"Q  c #957172",
"!  c #9B7273",
"~  c #A46B65",
"^  c #AB6B64",
"/  c #A26D69",
"(  c #B26B62",
")  c #A7726C",
"_  c #A9726C",
"`  c #BA7669",
"'  c #A57974",
"]  c #B77D73",
"[  c #CC664D",
"{  c #CE694D",
"}  c #D2674B",
"|  c #DD6C4C",
" . c #C66A54",
".. c #C56B56",
"X. c #CB6C55",
"o. c #C46C59",
"O. c #D36D52",
"+. c #DE6F50",
"@. c #C9725C",
"#. c #DA7154",
"$. c #D4745A",
"%. c #D8745A",
"&. c #E66A46",
"*. c #EC6C46",
"=. c #E36C4A",
"-. c #EA6D49",
";. c #F46D44",
":. c #FF6E41",
">. c #F06F48",
",. c #EB714D",
"<. c #F57047",
"1. c #FB7046",
"2. c #E57353",
"3. c #E87756",
"4. c #C37463",
"5. c #D57B64",
"6. c #DB7E65",
"7. c #BD847B",
"8. c #CE816F",
"9. c #365C82",
"0. c #3D5E82",
"q. c #3E6284",
"w. c #3E6688",
"e. c #425F82",
"r. c #426385",
"t. c #486585",
"y. c #456689",
"u. c #4B678C",
"i. c #46698C",
"p. c #4A698D",
"a. c #546987",
"s. c #5B6985",
"d. c #52698A",
"f. c #546889",
"g. c #55718E",
"h. c #476E91",
"j. c #4B6D91",
"k. c #477192",
"l. c #4D7394",
"z. c #4E7897",
"x. c #4E7798",
"c. c #4E7899",
"v. c #527495",
"b. c #587696",
"n. c #557896",
"m. c #537699",
"M. c #587799",
"N. c #547C9C",
"B. c #5A7B9B",
"V. c #636981",
"C. c #696C82",
"Z. c #68788E",
"A. c #7A7D8A",
"S. c #6A7D95",
"D. c #7A7E92",
"F. c #557EA0",
"G. c #5B7FA1",
"H. c #847782",
"J. c #937E84",
"K. c #56819E",
"L. c #5D819E",
"P. c #60829F",
"I. c #6B879F",
"U. c #77899B",
"Y. c #5682A2",
"T. c #5B83A2",
"R. c #5E82A1",
"E. c #5D8AA6",
"W. c #5E8AA8",
"Q. c #6186A2",
"!. c #6384A4",
"~. c #6586A6",
"^. c #6489A6",
"/. c #6C8BA6",
"(. c #6387A8",
"). c #648CAA",
"_. c #6A8CAB",
"`. c #788CA1",
"'. c #6691AD",
"]. c #6B93AE",
"[. c #7294AE",
"{. c #6C95B2",
"}. c #6E99B4",
"|. c #7395B2",
" X c #759AB6",
".X c #7A9CB6",
"XX c #759CB9",
"oX c #7B9DB9",
"OX c #77A1B9",
"+X c #7DA2BD",
"@X c #7EA6C0",
"#X c #8D838C",
"$X c #968A92",
"%X c #A58B8C",
"&X c #A2969B",
"*X c #8494A7",
"=X c #A39DA7",
"-X c #82A4BF",
";X c #91A3B6",
":X c #C28980",
">X c #83A6C1",
",X c #85AAC4",
"<X c #88ABC6",
/* pixels */
"o = 3 3 3 3 3 3 < < < < < * o @ 3 3 3 3 3 3 < < < < < - o X < 3 3 3 3 3 3 < < < < < + X * 3 3 3 3 3 3 < < < < < * o + 2 3 3 3 3 ",
"1 _.oX X_.~.~.!.N.N.N.N.N.0.@ v.oX X{.^.~.~.Y.N.N.N.N.l.@ 0.|..X|.^.~.~.R.N.N.N.N.N.< * !.oX X].~.~.!.N.N.N.N.N.i.o p..X.X|.).~.",
"B.,X}.R.v.p.p.p.p.p.p.p.p.i.3 >XOX).N.p.p.p.p.p.p.p.p.p.3 ).,X{.G.l.p.p.p.p.p.p.p.p.r.u.,X X!.v.p.p.p.p.p.p.p.p.i.<  X+X_.B.j.p.",
"v.}.m.p.p.p.p.p.p.p.p.p.p.r.2 }.T.h.p.p.p.u.u.p.p.p.p.p.< K.].z.p.p.p.p.p.p.u.u.p.p.r.r. XK.p.p.p.p.p.p.p.p.p.p.i.< ).).k.p.p.u.",
"i.W.l.p.p.p.p.p.p.p.p.p.u.3 - W.N.p.p.p.u.p.p.p.p.p.p.r.@ l.W.p.p.p.p.p.p.p.p.p.p.y.> 3 ).z.u.p.p.u.p.p.p.p.p.i.3 * Y.K.p.p.p.p.",
"2 h.p.p.p.p.p.p.p.p.i.r.3 @ + i.p.p.p.p.p.p.p.p.p.r.q.: + 0.p.p.p.p.p.p.p.p.p.y.f > @ - p.p.p.p.p.p.p.p.p.p.r.3 % @ r.p.p.p.p.p.",
"o * < < : : : : < < < * @ O X @ < < < < : : > < < - @ @ + + : < < < < : : < < : @ @ + o @ < < < < : : < < < * @ + o o < < < < : ",
"c.x.x.m.q.X X 3 Q.Q.Q.P.L.R.m.z.z.x.m.i.X @ B.~.Q.L.L.R.B.c.x.z.z.z.* X y.~.~.Q.L.L.L.n.z.x.z.m.q.X : P.Q.Q.R.L.R.B.x.z.x.x.p.@ ",
"l.l.l.l.i.* * oX>X X^.v.v.v.v.l.l.l.l.j.< !.<XoX].B.v.v.v.l.l.l.l.l.0.r.>X+X|.Q.v.v.v.l.l.v.l.l.p.< ].,X X).N.v.v.v.l.l.l.l.j.0.",
"u.u.u.u.p.* = XX).v.p.u.u.u.u.u.u.p.p.p.3 !.}.N.j.p.u.u.u.u.u.p.p.p.r.r.OXW.l.p.u.u.u.u.u.p.u.u.u.2 |.].N.p.p.p.u.p.u.p.p.u.p.r.",
"p.u.p.p.r.@ * ).K.p.p.u.u.p.p.p.u.p.p.t.: c.).h.u.u.p.u.u.u.p.u.u.i.3 3 '.m.u.p.u.u.p.u.p.p.u.p.r.- T.E.p.p.p.p.u.u.u.p.u.u.y.3 ",
"p.p.i.r.> + * N.l.p.p.p.p.p.p.p.p.i.r.3 @ i.m.p.p.p.p.p.p.p.p.p.y.3 - < N.h.p.p.p.p.p.p.p.p.i.r.> @ z.z.p.p.p.p.p.p.p.p.p.y.3 - ",
"r.0.: % + X X * 0.q.0.q.0.0.0.q.0.> % + X + 3 0.0.0.0.q.r.0.0.3 : @ o X < 0.0.0.0.0.0.0.q.0.: $ + X * 0.0.0.q.0.0.q.0.0.3 : @ X ",
"o 3 y.r.y.y.y.r.q.r.y y q.* X * y.y.i.y.y.r.q.q.q.q.q.2 + + q.i.y.i.y.y.r.q.q.q.q.q.* X : i.y.y.y.y.r.q.y p e f ; X @ r.i.y.y.y.",
"r..X+XXX_.R.!.G.S.` 2.2.` j * ^.-XoX].!.!.!.N.N.N.m.N.l.* p.-X+X X).!.!.G.N.N.N.N.m.3 < |.-XoX].!.!.G.J.2.;.<.5.C.* B.>X+X X!.!.",
"B.+X'.N.j.u.u.s.X.m :.:.m  .y @X}.R.v.p.u.u.p.p.p.u.u.p.3 ^.+X).m.h.p.u.p.p.u.p.p.p.r.y.,X].B.v.p.u.b *.m :.:.m X.t  XXX!.v.p.u.",
"l.{.z.p.p.p.p.E :.:.:.:.:.:.I ].K.p.p.p.p.p.p.u.u.u.p.p.< B.'.l.p.p.p.p.p.u.p.p.p.p.e.q.{.N.p.p.u.p.^ :.:.:.:.:.:.i W.E.p.p.p.u.",
"i.T.h.p.p.p.p.T :.:.:.:.:.:. .Q.z.p.p.p.p.p.p.p.p.u.i.3 * z.T.p.p.p.p.p.p.p.p.p.p.r.: 2 W.l.p.p.p.d.X.m :.:.:.:.:.8 N.B.p.p.p.p.",
"< r.i.i.u.u.i.E :.:.:.:.:.:.>.x i.i.y.i.i.i.i.i.y.q.3 : + < y.u.u.u.u.u.u.u.u.y.3 > + @ r.i.u.u.u.s.=.:.:.:.:.:.;.5 9.i.u.u.u.u.",
"* : < < - * * q | :.:.:.:.:.:.M < < < - * * < < < : : : * * < < < < * * - < < < : : * * * < < < - w *.:.:.:.:.:.=.q * < < < < * ",
"N.N.N.N.r.X X i.8.m :.:.:.:.:.$.B.N.N.h.+ < ^.|.{.).~.~.R.N.N.N.N.m.< o v.|.[._.~.(.(.F.N.N.N.N.w.5 ;.:.:.:.:.m %.S.N.N.N.N.z.* ",
"p.p.p.p.i.* : @X&X;.:.:.:.:.:.*.C.j.p.p.2 ~.,X X^.v.p.j.j.p.p.p.p.p.r.y.,XOX).B.j.j.j.p.p.p.p.p.i.I :.:.:.:.:.:.o.p.p.p.p.p.p.q.",
"p.p.p.p.i.* *  XI.+.:.:.:.:.:.:.E i.p.p.< L.{.z.p.p.p.p.p.p.p.p.p.p.r.r. XY.p.i.u.p.p.u.p.p.p.p.i.U :.:.:.:.:.:.( p.p.p.p.p.p.r.",
"p.p.p.p.r.@ * ^.N.K :.:.:.:.:.:.o.p.p.r.* z.).p.p.u.u.u.p.u.p.u.p.y.< 3 '.m.p.p.u.u.p.p.p.p.p.p.r.H :.:.:.:.:.:.T p.u.p.p.p.r.> ",
"j.p.r.q.: + + z.h.E :.:.:.:.:.:.-.z r.> + q.l.p.p.p.p.p.p.p.j.u.r.3 $ : z.p.p.p.p.p.p.p.p.i.r.4 & { :.:.:.:.:.:.R j.p.p.u.r.> @ ",
"3 2 $ @ + . X @ 2 u &.:.:.:.:.:.:.8 @ +   X < 3 3 < 2 2 2 2 2 < @ @ o X * 3 2 2 2 2 3 3 2 2 - @ 9 &.:.:.:.:.:.*.u 2 2 2 : @ @ X ",
"o r.B.N.v.m.m.v.h.h.` :.:.:.:.:.:.L v.v.v.v.h.h.p.i.h.q.o + j.M.N.v.v.v.l.p.h.h.h.i.* X 3 N.N.m.W :.:.:.:.:.:.#.t   @ v.v.N.v.v.",
"p.>X>X X!.B.B.N.v.x.W :.:.:.:.:.:.3.`.B.B.B.m.v.v.v.v.j.: B.,XoX|.!.B.B.N.z.v.v.v.v.0.0.+X>XXX)._ :.:.:.:.:.:.P p.- /.,XoX{.B.B.",
"B.+X).v.p.u.u.u.p.p.V.-.:.:.:.:.:.;.n i.u.u.p.p.p.p.p.p.3 ~.XXR.l.p.u.u.p.p.p.p.u.p.r.y.@X).z.p. .:.:.:.:.:.:.T i.< |.}.K.h.p.p.",
"h.{.l.p.u.u.u.u.p.p.p. .:.:.:.:.:.:.^ u.u.p.u.p.p.p.p.i.: m._.h.i.i.u.p.p.p.u.p.p.p.3 0.{.m.i.s.-.:.:.:.:.:.;.n r.: !.W.i.p.u.u.",
"i.Y.p.p.p.p.p.p.p.p.i.T :.:.:.:.:.:.O.f.p.p.p.p.p.p.i.3 @ k.F.d.x R b a.i.p.p.p.p.r.: 2 Y.l.p.n :.:.:.:.:.:.=.j < @ m.m.p.p.p.p.",
"@ 0.r.r.y.y.y.y.r.r.q.p ;.:.:.:.:.:.>.l r.r.r.r.r.3 : @ X * j L >.:.;.O.v y.r.e.> : + o 3 r.r.~ :.:.:.:.:.:.J : @ X : r.r.r.y.y.",
": < 2 2 : o o * 3 0.0.y O.:.:.:.:.:.:.N o + < 0.3 3 3 3 2 < H :.:.:.:.:.*.i 0.0.3 3 3 < < 3 3  .:.:.:.:.:.:.U 3 3 < < 2 2 2 2 + ",
"N.K.N.N.i.+ + B.+X.X{.^.` m :.:.:.:.:.K * r..XoX X_.~.~.R.A.<.:.:.:.:.:.m 3.*X].~.~.!.B.N.N.S.,.:.:.:.:.:.;.#X~.~.L.N.N.N.N.x.- ",
"p.p.p.p.i.- : -XXX^.m.i.R :.:.:.:.:.:.| r ).-X].B.j.p.p.p.^ :.:.:.:.:.:.:.:.' z.p.p.p.p.p.i.E :.:.:.:.:.:.| s.p.p.p.p.p.p.p.p.r.",
"p.p.p.p.i.* * {.T.p.i.p.V.-.:.:.:.:.:.;.p B.].z.i.u.p.i.x -.:.:.:.:.:.:.:.:.O.a.p.p.p.p.p.i.^ :.:.:.:.:.:.L u.p.u.p.p.p.p.p.p.0.",
"p.p.p.p.3 + * W.N.p.p.p.d.X.:.:.:.:.:.:.N l.W.p.p.u.p.p.L :.:.:.:.:.:.:.:.:.;.v u.u.p.p.p.f.O.:.:.:.:.:.:.Y p.u.u.p.p.p.p.p.r.: ",
"p.u.r.3 : + + i.p.p.p.p.p.^ :.:.:.:.:.:.A 0.p.p.p.p.p.v ;.:.:.:.:.:.:.:.:.:.:.K u.p.p.p.p.x *.:.:.:.:.:.>.b p.p.p.p.p.p.r.q.> @ ",
": : * @ @ + + @ < < < < ; a :.:.:.:.:.:.} # : < < < 1  .:.:.:.:.:.:.:.:.:.:.:.-.r < < : < I :.:.:.:.:.:.{ , < < < < < < : @ @ + ",
"@ m.^.).!.!.!.B.z.x.x.c.x.l ;.:.:.:.:.:.>.D.N.c.c.c.W ;.:.:.:.:.:.:.:.:.:.:.:.:.Q x.* + i.4.m :.:.:.:.:.` c.z.c.q.X < ~.^.~.!.!.",
"b.<XOX].B.v.v.l.h.h.h.k.h.z -.:.:.:.:.:.:.W k.l.k.g.@.:.:.:.:.:.:.:.:.:.:.:.:.:.O.d.q.r.;X3.:.:.:.:.:.:.R k.h.j.i.< |.,X X).v.v.",
"n. XK.p.p.p.p.p.p.p.p.p.p.V.} :.:.:.:.:.:.^ p.p.p.R ;.:.:.:.:.:.:.| :.:.:.:.:.:.;.n q.r.&X;.:.:.:.:.:.-.V.p.p.p.p.< ].'.m.p.p.p.",
"p.'.l.p.p.p.p.p.p.p.p.p.p.j F :.:.:.:.:.:.o.d.p.d. .:.:.:.:.:.:.*.R | :.:.:.:.:.:.K 3 3 ] m :.:.:.:.:.o.d.p.p.p.r.: T.T.i.p.p.p.",
"q.N.p.p.p.p.p.p.p.p.p.i.q.w A :.:.:.:.:.:.=.s.p.R ;.:.:.:.:.:.:.X.s.^ :.:.:.:.:.:.-.w , #.:.:.:.:.:.:.T p.p.i.r.> @ z.l.p.p.p.p.",
"+ < 0.0.0.0.q.0.0.0.3 - @ 9 V ;.:.:.:.:.:.;.l e. .:.:.:.:.:.:.;.G y l *.:.:.:.:.:.:.M 0 >.:.:.:.:.:.>.d 0.3 : @ + X @ 0.0.0.0.0.",
"q.q.r.r.< X X * p.p.p.p.i.V.~ -.:.:.:.:.:.:.Y c ;.:.:.:.:.:.:.o.U h @ Z :.:.:.:.:.:.| H :.:.:.:.:.:.{ d.p.p.p.p.p.r.q.r.r.r.q.o ",
"N.N.N.N.i.@ * _.>XoX|.L.L.D._ #.:.:.:.:.:.m 6.6.m :.:.:.:.:.-.W ' Z.9.i ;.:.:.:.:.:.:.;.:.:.:.:.:.:.7.>X+X|.Q.P.L.B.N.N.N.N.m.2 ",
"u.u.u.u.i.- : +X}.Y.v.p.i.V./ o.:.:.:.:.:.:.1.;.:.:.:.:.:.:.^ V.Y s.r.t.6.m :.:.:.:.:.:.:.:.:.:.:.<.=X XQ.z.p.u.u.u.u.u.p.u.p.r.",
"p.p.p.p.y.* * ].T.p.p.p.i.V./ ( ;.:.:.:.:.:.:.:.:.:.:.:.:.-.x p.s.p.0.0.%X:.:.:.:.:.:.:.:.:.:.:.:.{ /.W.p.p.p.p.p.p.p.p.p.p.p.0.",
"p.p.p.i.3 + * T.m.p.p.p.p.V./ ^ >.:.:.:.:.:.:.:.:.:.:.:.:.^ p.p.p.r.: 2 I.#.m :.:.:.:.:.:.:.:.:.:.V N.N.p.p.p.p.p.p.p.p.p.p.r.: ",
"i.y.3 > @ X + 0.y.y.y.y.y.z / ~ -.:.:.:.:.:.:.:.:.:.:.:.-.z i.r.3 : + @ q.Y :.:.:.:.:.:.:.:.:.:.;.8 2 y.y.i.y.y.y.i.i.y.r.3 : o ",
"@ : > : : = = : < < < < < w C C | :.:.:.:.:.:.:.:.:.:.:.A @ < 1 : : = = : u =.:.:.:.:.:.:.:.:.:.=.a * < < < < < : * @ < < : : * ",
": ~. X|._.~.~.Q.N.N.N.N.N.h M ~ %.:.:.:.:.:.:.:.:.:.:.=.9 < _.|.|.^.~.~.R.N.` :.:.:.:.:.:.:.:.:.%.J.~.N.N.N.N.F.r.+ r.|.|.].^.~.",
"B.<XXX).m.p.j.j.p.p.p.p.p.u.k :X8.:.:.:.:.:.:.:.:.:.:./ 2 ).,X|.!.v.p.p.p.j.n ;.:.:.:.:.:.:.:.;.L R p.p.p.p.p.p.p.<  X@X{.R.j.p.",
"v.}.N.p.i.p.p.p.p.p.u.u.p.y.t $X' >.:.:.:.:.:.:.:.:.=.V.2 L.{.m.p.u.u.p.i.p.d.X.:.:.:.:.:.:.:.-.^ R p.p.u.p.u.p.p.< _.).l.p.p.u.",
"i.).l.p.p.p.p.p.p.p.p.p.i.3 : ).B.X.:.:.:.:.:.:.:.:.T r.- z.W.p.p.p.u.p.p.p.p.Y :.:.:.:.:.:.:.O.~ R u.p.p.p.p.i.r.* Y.T.p.p.u.p.",
"0.l.j.p.p.p.p.p.p.p.p.r.3 $ @ l.h.Y :.:.:.:.:.:.:.| h : + w.l.p.p.p.p.p.p.p.p.n | :.:.:.:.:.:.L ~ R p.p.p.p.y.4 : @ i.h.p.p.p.p.",
"o : 3 3 2 2 2 2 2 3 < * @ O X * 2 u &.:.:.:.:.:.;.8 @ + X o : 2 2 2 2 2 2 3 2 i V } m m :.:.[ D D s 2 2 < < - @ + X + 2 3 2 2 2 ",
"k.k.k.k.3 X X < B.B.B.N.B.B.l.k.k.g.4.:.:.:.m 1.] B.B.B.v.k.k.k.k.p.* X 0.B.B.H.! D.7.%.2.@._ / D 6 * b.B.B.B.B.B.l.k.k.k.k.i.o ",
"v.z.v.v.i.* *  X>XoX'.B.b.M.v.z.z.b.! o.| ,.6.%X[.L.n.N.v.z.z.z.z.z.0.0.-X>XXX#X! b.m.g.! ) ) ) ~ a _.,X.X].B.b.M.v.z.z.v.v.l.0.",
"u.u.p.p.p.- : oX].N.p.p.u.u.u.p.p.f.T ~ D ] *XY.k.p.p.u.u.u.p.p.p.p.r.y.+X).z.n Y d.u.d.Y ~ ~ ~ ~ s |.}.N.h.p.p.u.p.u.p.p.p.p.r.",
"u.u.p.p.r.@ * '.Y.p.p.p.p.p.p.p.p.f.T ~ D ) U.h.p.p.p.p.p.u.p.p.p.p.3 0.].m.p.n Y d.p.d.Y ~ ~ ~ ~ a E.W.p.p.p.p.p.p.u.p.p.p.p.3 ",
"u.p.i.r.> + * N.l.p.p.p.p.p.p.p.p.a.Y D B / Z.p.p.p.p.p.p.p.p.p.i.f : < Y.j.p.v Y d.p.d.Y ~ ~ / D 7 c.m.p.p.p.p.p.p.p.p.u.u.3 - ",
"p.u.3 > @ X X 2 i.p.p.p.p.p.p.p.p.g S C M C j p.p.u.p.p.p.p.p.r.3 : + + 0.i.u.v Y d.p.d.Y ~ D D V 6 ; y.p.p.u.p.p.p.p.u.r.3 : + "
};
