/* XPM */
static char *e2f5d5d8156a4a5db2e14c46c8589fa8KJ64dYqbf6LQM9Zb[] = {
/* columns rows colors chars-per-pixel */
"64 64 213 2 ",
"   c #2C3D70",
".  c #343C77",
"X  c #413A7F",
"o  c #1F4168",
"O  c #214267",
"+  c #24456A",
"@  c #29466C",
"#  c #26496B",
"$  c #2A4C6E",
"%  c #2D516E",
"&  c #30516F",
"*  c #2C4D72",
"=  c #324E75",
"-  c #3A457B",
";  c #3A497C",
":  c #2E5174",
">  c #325375",
",  c #385577",
"<  c #375976",
"1  c #385A77",
"2  c #34557A",
"3  c #3A557C",
"4  c #36597C",
"5  c #3B5B7D",
"6  c #3E607E",
"7  c #4B388A",
"8  c #51338E",
"9  c #563292",
"0  c #5C3797",
"q  c #66289E",
"w  c #613A9D",
"e  c #6E2AA4",
"r  c #7728AD",
"t  c #643AA1",
"y  c #6C39A6",
"u  c #7537AC",
"i  c #7D24B2",
"p  c #7D2DB3",
"a  c #7B32B2",
"s  c #7C3BB5",
"d  c #3D5481",
"f  c #375A80",
"g  c #3D5E82",
"h  c #3E6284",
"j  c #474786",
"k  c #4B4B8B",
"l  c #445185",
"z  c #425C84",
"x  c #445F8A",
"c  c #4B5A8D",
"v  c #594698",
"b  c #4E5890",
"n  c #595797",
"m  c #565F96",
"M  c #5D5B9B",
"N  c #63479E",
"B  c #62579F",
"V  c #61589E",
"C  c #426485",
"Z  c #446886",
"A  c #456689",
"S  c #4B678C",
"D  c #466A8C",
"F  c #4A698D",
"G  c #46718F",
"H  c #4F6491",
"J  c #476E90",
"K  c #4B6D91",
"L  c #526393",
"P  c #5A619C",
"I  c #546C99",
"U  c #5B689B",
"Y  c #467191",
"T  c #4D7293",
"R  c #4F7798",
"E  c #4E7899",
"W  c #527495",
"Q  c #587797",
"!  c #557896",
"~  c #527598",
"^  c #547C9C",
"/  c #5A7C9B",
"(  c #6B43A5",
")  c #6F4DA9",
"_  c #7845AF",
"`  c #724BAB",
"'  c #6555A2",
"]  c #6A51A5",
"[  c #635BA4",
"{  c #6B57AB",
"}  c #7744B0",
"|  c #7C44B4",
" . c #7A4AB6",
".. c #785BB5",
"X. c #577AA0",
"o. c #5C7DA1",
"O. c #6468A4",
"+. c #676DAA",
"@. c #6775A9",
"#. c #6D6AB2",
"$. c #7269B4",
"%. c #6F77B0",
"&. c #777FB5",
"*. c #8226B5",
"=. c #832AB6",
"-. c #8523B9",
";. c #8B23BE",
":. c #852BBB",
">. c #8A2EBD",
",. c #8033B5",
"<. c #8632BB",
"1. c #8A33BE",
"2. c #853CBB",
"3. c #8A39BE",
"4. c #8243BB",
"5. c #8244B9",
"6. c #8453BD",
"7. c #815CBA",
"8. c #961EC6",
"9. c #9C1DCB",
"0. c #AD0ED9",
"q. c #B40CDE",
"w. c #A414D2",
"e. c #AE13DA",
"r. c #AE1DDB",
"t. c #B213DE",
"y. c #B11ADE",
"u. c #8E24C1",
"i. c #9424C5",
"p. c #932DC6",
"a. c #9D22CE",
"s. c #9C2BCC",
"d. c #8E34C1",
"f. c #8D39C2",
"g. c #9134C4",
"h. c #913AC7",
"j. c #9632C9",
"k. c #9934CD",
"l. c #953BCA",
"z. c #9A3CCC",
"x. c #9D39D2",
"c. c #A325D2",
"v. c #AA21D7",
"b. c #A72AD7",
"n. c #AA21D8",
"m. c #B125DF",
"M. c #A531D6",
"N. c #A43AD6",
"B. c #AE3CDE",
"V. c #B60DE1",
"C. c #BC0DE5",
"Z. c #BE09E8",
"A. c #BA15E5",
"S. c #BB17E5",
"D. c #B519E0",
"F. c #BE12E9",
"G. c #B726E5",
"H. c #B634E3",
"J. c #C506ED",
"K. c #C40CED",
"L. c #C809EF",
"P. c #C313ED",
"I. c #C71AEF",
"U. c #CD05F3",
"Y. c #C70DF0",
"T. c #CB0AF2",
"R. c #D103F7",
"E. c #D800FC",
"W. c #C916F2",
"Q. c #C424EE",
"!. c #8D43C4",
"~. c #8948C3",
"^. c #9444CB",
"/. c #9356CD",
"(. c #9755CC",
"). c #9D45D1",
"_. c #9C4BD1",
"`. c #A649D8",
"'. c #A757DA",
"]. c #9275CD",
"[. c #9C66D1",
"{. c #56819E",
"}. c #5C819E",
"|. c #60819F",
" X c #5682A1",
".X c #5B83A2",
"XX c #5D89A6",
"oX c #5F8BA8",
"OX c #6384A4",
"+X c #6586A6",
"@X c #6489A6",
"#X c #6889A7",
"$X c #6484AB",
"%X c #648CAA",
"&X c #6A8BAA",
"*X c #6691AD",
"=X c #6B92AE",
"-X c #798FB8",
";X c #6D95B2",
":X c #6D98B3",
">X c #7395B2",
",X c #749AB6",
"<X c #799CB6",
"1X c #7994B9",
"2X c #769CB8",
"3X c #7B9CB9",
"4X c #76A0B9",
"5X c #7CA2BC",
"6X c #7FA7C0",
"7X c #81A5BF",
"8X c #83A6C1",
"9X c #85AAC3",
"0X c #88ABC4",
/* pixels */
"+ = 5 5 5 5 5 5 2 2 2 2 2 * + $ 5 5 5 5 5 5 2 2 2 2 4 : + O 2 5 5 5 5 5 5 2 2 2 2 2 $ O * 5 5 5 5 5 5 2 2 2 2 2 * + # 2 5 5 5 5 ",
"3 &X3X,X&X+X+XOX^ ^ ^ ^ ^ g $ W 3X,X;X@X+X+X.X^ ^ ^ ^ T $ g >X<X>X#X+X+X.X^ ^ ^ ^ ^ 2 * OX3X,X=X+X+X+X^ ^ ^ ^ ^ D @ D <X<X>X#X+X",
"/ 9X:X.XW D F F D D D D D A 5 8X4X%X^ F F D D D F F D D 5 %X9X;Xo.K D D D D D D D D C S 9X,XOX~ D D D D D D D D D 2 ,X5X&X/ K D ",
"W :X~ D D D F F D D D F F C 5 :X.XJ D D D S S F F F D D 2 {.*XR D D D D D D D F S D C C ,X{.D D D F F F F F S D D 2 %XoXT D D S ",
"D oXT D D D D D D D D D S 5 : oX^ D D D S F D D D D D h $ I %.[ B B ' ' ' B M M L S > 4 %XR S D D S D D D D D D 5 * .X{.D D D D ",
"4 J D D D D D D D D D C 5 $ # D D D D D F F D D D S n u 8.D.P.Y.Y.Y.Y.U.Y.Y.L.K.D.c.=.v I D D D D F D D D D C 5 & $ A F D D D D ",
"+ * 2 2 2 > > 2 2 2 2 * $ @ + $ 2 2 2 2 > > 3 v d.e.L.E.E.E.E.E.E.E.E.E.E.E.E.E.E.E.E.U.t.,.l 4 2 > 2 2 2 2 * $ $ # @ 2 2 2 2 2 ",
"~ R ~ ~ h O O 5 OXOXOX|.}..X^ R R ~ ~ D . q w.U.E.E.E.E.E.E.E.E.E.E.E.E.E.E.E.E.E.E.E.E.E.E.t.` h + > |.OXOXOX|..X/ ~ R R R F $ ",
"T T T T D * * 3X8X,X@XW W W W T T T I | t.R.E.E.E.E.E.E.E.E.E.E.E.E.E.E.E.E.E.E.E.E.E.E.E.E.E.T.2.2 =X9X,X&X^ W W W W W T T K g ",
"S S S S D * = 2X%X~ D S S S S D S ] v.R.E.E.E.E.E.E.E.E.E.E.E.E.E.E.E.E.E.E.E.E.E.E.E.E.E.E.E.E.U.t ;X=X^ F D F S F S F F S D C ",
"F S F F C $ * %X{.D D S S F D S 2.K.E.E.E.E.E.E.E.E.E.E.E.E.E.E.E.E.E.E.E.E.E.E.E.E.E.E.E.E.E.E.E.e.$XoXD D D D S S S F S S A 5 ",
"D D D C 2 # * ^ T D D D D D L j.R.E.E.E.E.E.E.E.E.E.E.E.E.R.Y.Y.Y.L.V.t.A.F.Y.U.R.E.E.E.E.E.E.E.E.T.$.R D D D D D D D D D A 5 : ",
"C g > & # O O * g h g g g c s.E.E.E.E.E.E.E.E.E.E.E.U.q.i.u v a ;.i .   ; b <.i.a.e.L.R.E.E.E.E.E.R.w g g g g g g g g g 5 > $ O ",
"+ 5 Z C A A A A h h h h h :.E.E.E.E.E.E.E.E.E.E.P.x.) l O O h } d.3.m C C x s 1.<.<.;.Z.E.E.E.E.E.E.} h h h h h > + $ C D A A A ",
"C <X7X2X&X.XOX.X^ ^ ^ ^ ..T.E.E.E.E.E.E.E.E.K.f.O.~ ^ T * F 7X[.`._.@.OXo.X.~.l.l.l.>.Z.E.E.E.E.E.E.6.^ ^ ^ ^ ^ D * Q 8X5X,XOXOX",
"/ 5X*X^ K S S D D F D S v.E.E.E.E.E.E.E.R.c.V D D S D D 5 #X5X/.l.f.L D D H 2.g.d.d.g.J.E.E.E.E.E.R.) D S D S D D 2 ,X2XOX~ D S ",
"T ;XR D D F F F F F D B Y.E.E.E.E.E.E.Y.2.L D S S S F D 2 / *X .g.3.L D D L 2.g.d.d.d.V.E.E.E.E.E.K.V F F F S D A 2 @XXXF D F S ",
"D XXJ D F F F F F D D | R.E.E.E.E.E.U.| D D D D D S D 5 * R .X| g.3.m D F L 2.g.g.d.=.8.R.E.E.E.E.s.S F F F D S 5 $ ^ / D F F F ",
"2 A D D S S S S A S C >.E.E.E.E.E.E.c.A D D D D A C 5 > # 2 D } g.3.m S S H 2.g.>.=.i -.D.L.U.Y.y.` D S S S g 1 $ # g D S S S S ",
"* > 2 2 : * * * 2 2 2 u.E.E.E.E.E.E.p : * * 2 2 2 > > > * * 2 y :.p ; * * d a :.=.=.*.-.w.u.u.;.:.0 * 2 2 2 > > * * * 2 2 2 2 * ",
"^ ^ ^ ^ C + + D >X>X*XN.E.E.E.E.E.E.!.G # 2 #X>X>X#X+X+X.X^ / 6.z.!.; # W -X(.`.).).).x.m.z.l.z.d.9 g =X>X=X@X+X+X.X^ ^ ^ ^ R * ",
"F F F F D * > 7X5X=X{.j.E.E.E.E.E.E.c.H 2 +X9X,X@X~ F K K F K | g.f.c A 9X3X(.l.g.g.g.j.r.j.g.g.g.w ,X8X>XOXT F K F F F F F F C ",
"D D D D D * = ,XoXT D 2.E.E.E.E.E.E.R.g.d }.;XR D D D D D D S | g.3.c C ,X.X .g.g.g.g.p.v.j.g.g.g.w *X%XT D F S S D D D D D D C ",
"F D D D C $ * @X^ D D ] U.E.E.E.E.E.E.R.8.O.oXD D S S S F S S | g.3.l 4 *X~ M f.g.g.g.j.s.g.g.g.>.0 .XXXD S S S S F S F F F C 2 ",
"K D C C > # $ R K F F L n.E.E.E.E.E.E.E.E.P.h.' S D D D D D K } d.,.; : R F D [ | 3.5.` 3.g.d.1.=.9 D T D S S D D D D D S A 1 $ ",
"f 5 % $ # o + $ 5 5 4 4 v L.E.E.E.E.E.E.E.E.E.L.n.s v d 4 4 5 y *.r . o * 5 4 4 d d d l a :.=.*.*.8 @ 2 5 5 4 4 4 4 4 4 > $ $ O ",
"+ C Q Q W Q Q W J J J J J s U.E.E.E.E.E.E.E.E.E.E.E.L.w.i 8 m 6.l.!.U ~ T F J J J D $   ,.l.l.l.l...~ J J D D J 4 o $ W Q ^ Q W ",
"K 8X8X,XOXQ Q ^ ~ ~ ~ ~ ~ A r T.E.E.E.E.E.E.E.E.E.E.E.E.E.U.I.Q.H.N.O.Q ! R ~ ~ ~ ~ g l '.'.`.).z...^ ~ ~ ~ ~ ~ D : #X0X3X;Xo.Q ",
"Q 5X@XW D S S S D D D D D A 5 [.W.E.E.E.E.E.E.E.E.E.E.E.E.E.E.E.E.U.r.2.B S D D S D C c '.).h.g.g.` D D S D D D D 2 >X:X{.J D D ",
"J ;XT D S S S S D D D D D C 2 *X$.r.R.E.E.E.E.E.E.E.E.E.E.E.E.E.E.E.E.E.L.c.` H D D 5 l _.l.d.g.g.` D S D D D D A > OXoXD D S S ",
"D  XF D F F F F D D D D C 2 : .XT L 5.y.R.E.E.E.E.E.E.E.E.E.E.E.E.E.E.E.E.E.U.v.` C : d ^.g.g.d.g.` F F F D D C 1 $ ~ ~ D D F F ",
"$ g C C A A A A C C C 2 > # + 2 C C C c ( a.Z.R.E.E.E.E.E.E.E.E.E.E.E.E.E.E.E.E.U.u.- @ y d.d.d.3.n A C C C 5 > $ + > C C C A A ",
"2 4 4 4 > @ @ * 5 g g 5 5 5 2 2 5 f f 2 # @ k _ M.I.R.E.E.E.E.E.E.E.E.E.E.E.E.E.E.E.0.7 d ( s s k @ $ 5 g g 5 5 5 2 2 4 4 4 4 # ",
"^ {.^ ^ D # # / 5X<X;X@X+X+X.X^ ^ ^ {.T * C <X<X<X&.7.l.y.Y.E.E.E.E.E.E.E.E.E.E.E.E.E.A.#.^ X.o.D $ F 3X<X>X#X+X+X.X^ ^ ^ ^ R : ",
"D D D D D * > 7X2X@X~ D D D D D D D D D 5 #X7X*X/ T D D H B | c.F.R.E.E.E.E.E.E.E.E.E.E.D.M D D D 5 <X5X%X^ F D D D D D D D D C ",
"D D D D D * * ;X.XF D D S S S D D D D D 2 / =XR D S D D D D D D m } c.L.E.E.E.E.E.E.E.E.E.c.S D D 2 %XoXJ S S S S D D D D D D g ",
"F D D D 5 # * oX~ D D F D F F F S D D C * R oXF F S F F F S F D D Z , v N.Y.E.E.E.E.E.E.E.R.} D 5 : .X.XD F F S S F F D D D C > ",
"F S C 5 > # # D D D D S H D D F S C 5 > # g F D D D D F F D F A h < $ : F ) A.E.E.E.E.E.E.E.y.z % # h F D D F F D D F F C z 2 $ ",
"> > * $ $ # # $ 2 2 ( c.r.p.k > 2 : $ $ # # > 2 2 2 2 2 > > 2 > $ $ # # * 2 t J.E.E.E.E.E.E.R.0 # # # 2 2 2 2 2 2 2 2 2 > $ $ # ",
"$ ~ #X%XOXOXOX/ R | U.E.E.E.0.n @X%XOXOXOXOX^ ~ E E ~ D # * / #X@XOXOXOX/ R { M.U.E.E.E.E.E.E.M.OXOXo.E R E R E h + 2 +X@X+XOXOX",
"! 0X5X=X/ W W T P P.E.E.E.E.E.`.5X>X@X~ W W K T T T T J 2 OX0X3X*X^ W W T T { h.y.E.E.E.E.E.E.A.U W W T K T J K D 2 >X0X,X%XW W ",
"Q ,X{.F D D D D ] U.E.E.E.E.E.G.$XR D D S S F D D D D D 5 OX:X^ F D D S D D ] g.s.U.E.E.E.E.E.Y.' D S F D F D S D 2 =X*X~ D D D ",
"F *XW D D D D D ] U.E.E.E.E.E.P.O.D F D D D F F D D D C > E %XK D F F S F D ] g.j.L.E.E.E.E.E.R.` D D F F D D S C > .XXXD D D D ",
"h ^ D D D D D D M K.E.E.E.E.E.U.{ D F F D D F F F D C 2 $ D ! D D F F F F D ] g.g.K.E.E.E.E.E.E.4.D D F F D D C 2 $ R W D D F F ",
"# 2 g g g g h g z e.E.E.E.E.E.E.1.g g g g g z g g 2 > $ O # 5 g g g g z z g N >.=.C.E.E.E.E.E.E.,.h g g g 5 > $ # O $ d g g g g ",
"h h C A 2 + O * D k.E.E.E.E.E.E.t.c C 5 + # C D F D D D A h C C C h $ O 2 F ] g.g.A.E.E.E.E.E.E.i O $ D F F D D D A h A C C g @ ",
"^ ^ ^ ^ D $ * &X9X].R.E.E.E.E.E.R.6./ T > W 7X5X,X@X}.OX/ ^ ^ ^ ^ ^ f 2 >X5X].`.z.P.E.E.E.E.E.E.<.% / 8X5X>XOX|.}./ ^ ^ ^ ^ ~ 5 ",
"S S S S D : > 5X:X@.A.E.E.E.E.E.E.D.m D 3 #X5X@X~ F D S S S S S F D C S 8X*X..g.s.U.E.E.E.E.E.E.| 2 ,X,XOXR D S S S S S F S D C ",
"F F F F A * * =X.XD f.E.E.E.E.E.E.E.3.D 2 ^ *XT D D D D F F F F F D g g ;X^ ] s.K.E.E.E.E.E.E.U.] 2 @XoXF D D D F F F F F D D g ",
"D D D D 5 # * XX~ D ' Y.E.E.E.E.E.E.Y.( $ T  XF D D D D D D D D D C > 4 oXT | K.E.E.E.E.E.E.E.C.k $ ^ ^ D D D D D D D D D D C > ",
"D A 5 < $ + # g A A n r.E.E.E.E.E.E.E.C.7 2 C A A A A A D D D C 5 > # # c 2.K.E.E.E.E.E.E.E.R.9.- + 4 A A A A A A D D A C 5 > @ ",
"$ > 2 > > = = > 2 2 k ;.L.E.E.E.E.E.E.E.q.9 > 2 4 2 2 2 $ $ 2 5 2 = X e e.E.E.E.E.E.E.E.E.E.C.=.d * * 2 2 2 2 2 > * $ 2 3 > > = ",
"> +X,X>X&X+X+X.X^ ^ +.^.m.R.E.E.E.E.E.E.E.U.x.#.+.+.#.[ 7 8 7.(.`.m.K.R.E.E.E.E.E.E.E.E.E.T.B._.%.+X+X^ ^ ^ ^ X.A # C >X>X>X@X+X",
"/ 9X2X%XQ F K K D D M d.g.A.E.E.E.E.E.E.E.E.E.T.K.Y.Y.Y.U.U.R.E.E.E.E.E.E.E.E.E.E.E.E.E.T.B.).^.P F F F F F F F D 2 ,X6X;X.XK F ",
"W >X^ D D D D F F D M d.g.p.C.E.E.E.E.E.E.E.E.E.E.E.E.E.E.E.E.E.E.E.E.E.E.E.E.E.E.E.E.Y.B.^.g.3.m F F F S F F F D 2 &X%XT D S S ",
"D %XT D D D D F D D M d.g.>.;.K.E.E.E.E.E.E.E.E.E.E.E.E.E.E.E.E.E.E.E.E.E.E.E.E.E.R.V.p._.h.g.f.m F S D D D D D C * .X.XD F S S ",
"g T K D D D D D D D M 1.>.=.i k.A.E.E.E.E.E.E.E.E.E.E.E.E.E.E.E.E.E.E.E.E.E.E.E.C.9.*.=.h.g.g.f.M D D D D D A 6 > $ D J D D D D ",
"+ > 5 5 4 4 4 4 4 2 k *.*.i i i w -.L.E.E.E.E.E.E.E.E.E.E.E.E.E.E.E.E.E.E.E.V.i j e i i *.>.>.=.l 4 5 5 5 5 > $ @ O # 2 5 4 4 4 ",
"T T T T 4 O O 2 Q / +.l.l.l.h.f.[ T ..G.R.E.E.E.E.E.E.E.E.E.E.E.E.E.R.L.P.H.%.^ ^ 6.l.h.h.h.g.4.d O * Q / Q Q Q Q T Y T T T D @ ",
"W R ~ ~ D * * ,X8X3X&.l.l.l.h.h.{ R T I y b.Q.P.P.F.F.F.A.D.y.v.s.g.a.p.`.'.1X@X^ O.!.h.l.l.f.[ D 2 &X0X3X=X/ Q Q ~ R R ~ ~ T g ",
"S S D D D : > 3X*X^ P d.g.g.g.g.' D D D 2 OX-X@.P m m m L L L S D M 1.d.'./.I D S S m ` | | M D D 3 >X:X^ J D D S D S D F D D C ",
"S S F F C $ * *X XD M d.g.g.g.g.] D F S > ~ *XT D D D D F F F F D M >.>.`.~.H D S S D F S S D D C > XXoXF D D D F F S F F F D 5 ",
"S S D C < # * ^ T D M d.g.g.g.g.' D A 5 $ G / D D D D F S S F D D n =.:.^.4.L D S S F F D D D C < $ E ~ D D D D F F F F S S 5 > ",
"S S 5 < $ + + 4 D D M d.g.g.g.g.' h < : + : C D D S F F F F F C < j i i >.2.L D S S F D D D 5 < $ + : A D F S F F F F F C 5 > # "
};
