/* XPM */
static char *_0ac65d67e2d4abf9a1abbc517fa5ed9MAk7wPHGLBFXIW34[] = {
/* columns rows colors chars-per-pixel */
"64 64 173 2 ",
"   c #1F3F65",
".  c #1F4169",
"X  c #214267",
"o  c #24446A",
"O  c #29476A",
"+  c #26496C",
"@  c #2A4C6D",
"#  c #2F516F",
"$  c #30516E",
"%  c #2C4D72",
"&  c #324F76",
"*  c #2E5174",
"=  c #325375",
"-  c #385775",
";  c #365976",
":  c #3A5A77",
">  c #345579",
",  c #3A577C",
"<  c #36597C",
"1  c #3A5B7D",
"2  c #3E607F",
"3  c #42617E",
"4  c #3D5E82",
"5  c #3E6284",
"6  c #405F83",
"7  c #436385",
"8  c #486583",
"9  c #456887",
"0  c #4C6A85",
"q  c #456689",
"w  c #4A678C",
"e  c #46698C",
"r  c #4A698D",
"t  c #516D8B",
"y  c #45708F",
"u  c #55718E",
"i  c #5A738D",
"p  c #476E90",
"a  c #4C6E91",
"s  c #526E92",
"d  c #477192",
"f  c #4D7394",
"g  c #4F7798",
"h  c #537495",
"j  c #597495",
"k  c #557996",
"l  c #5C7995",
"z  c #547599",
"x  c #5C7798",
"c  c #547B9C",
"v  c #557E9D",
"b  c #547E9E",
"n  c #5B7B9B",
"m  c #687F96",
"M  c #637D9B",
"N  c #547EA0",
"B  c #5C7FA1",
"V  c #55819D",
"C  c #59819E",
"Z  c #5E819E",
"A  c #62819F",
"S  c #6A819D",
"D  c #72899E",
"F  c #5780A1",
"G  c #5980A1",
"H  c #5C83A2",
"J  c #5E83A2",
"K  c #5D8AA6",
"L  c #5F8BA9",
"P  c #6384A3",
"I  c #6285A5",
"U  c #6686A6",
"Y  c #6B85A2",
"T  c #6489A6",
"R  c #6D88A5",
"E  c #6586A8",
"W  c #668AA9",
"Q  c #648CA9",
"!  c #6A8CAA",
"~  c #6A8EAD",
"^  c #7087A4",
"/  c #748BA4",
"(  c #768DA9",
")  c #788DA9",
"_  c #6591AD",
"`  c #6C92AE",
"'  c #7C92A6",
"]  c #7392AD",
"[  c #7D93AB",
"{  c #6F96B1",
"}  c #6C95B2",
"|  c #6E98B4",
" . c #7395B2",
".. c #7597B4",
"X. c #7B96B1",
"o. c #749AB5",
"O. c #7799B6",
"+. c #7C9BB5",
"@. c #779CB8",
"#. c #7A9BB8",
"$. c #7B9DB9",
"%. c #7C9EBB",
"&. c #77A1BA",
"*. c #7CA2BC",
"=. c #7FA7C0",
"-. c #8296AC",
";. c #8599AC",
":. c #849BB3",
">. c #8A9DB4",
",. c #84A1B7",
"<. c #8FA3B6",
"1. c #82A4BD",
"2. c #8CA4BB",
"3. c #93A4B5",
"4. c #94A6B9",
"5. c #96A9BC",
"6. c #9AABBD",
"7. c #A0B1BF",
"8. c #83A5C1",
"9. c #82A9C3",
"0. c #85AAC3",
"q. c #8AABC4",
"w. c #96ACC0",
"e. c #9DAEC1",
"r. c #96B1C5",
"t. c #9DB1C3",
"y. c #96B5CA",
"u. c #9AB5CB",
"i. c #A4B3C6",
"p. c #A9B6C6",
"a. c #ADBAC6",
"s. c #A5B6C8",
"d. c #A9B7C8",
"f. c #A5BACB",
"g. c #ACBCCC",
"h. c #B2BECC",
"j. c #A6BFD3",
"k. c #ACBFD0",
"l. c #A7C0CD",
"z. c #B4C1CE",
"x. c #ADC2D2",
"c. c #B3C4D3",
"v. c #BAC5D3",
"b. c #B4C8D6",
"n. c #BCC9D6",
"m. c #B6C9D8",
"M. c #BCCDDB",
"N. c #BDD0DD",
"B. c #C2CCD6",
"V. c #C3CDD9",
"C. c #C6D2DD",
"Z. c #CAD3DD",
"A. c #D1D9DF",
"S. c #C3D5E1",
"D. c #CCD6E0",
"F. c #CED9E1",
"G. c #D0D7E1",
"H. c #D3DBE4",
"J. c #D8DFE6",
"K. c #D7E0E7",
"L. c #DCE2E7",
"P. c #D3E0E8",
"I. c #DDE4EA",
"U. c #E1E6EB",
"Y. c #E5E9ED",
"T. c #E8EBEF",
"R. c #E6EDF1",
"E. c #EAEEF2",
"W. c #EDF1F4",
"Q. c #F2F4F6",
"!. c #F4F7F8",
"~. c #F6F8F9",
"^. c #FFFFFF",
/* pixels */
"o & 1 1 1 1 1 1 > > > > > % o @ 1 1 1 1 1 1 > > > > > * o X > 1 1 1 1 1 1 > > > > > + X % 1 1 1 1 1 1 > > > > > % o O > 1 1 1 1 ",
", ! $.O.~ U U I c c c c c 4 @ k %.O.{ T U U G c c b c f @ 4 ..#...W U U J b b c c b > % P %.O.` U U I c c c b c e o r #.#. .Q U ",
"n 9.| J h r r r r r r r r e 1 8.&.Q c r r r r r r r r r 1 Q 9.{ B f r r r r r r r r 7 w 0.O.I h r r r r r r r r e > O.*.~ b a r ",
"h | c r r r r r r r r r r 7 < | J p r r r w w r r r r r > C ` g r r r r r r w w w r 7 7 O.V r r r r r r r r r r e > Q L f r r w ",
"e L f r r r r r r r r r w 1 * K c r r r w r r r r r r 7 @ f K r r r r r r r r r r q - < Q g w r r w r r r r r e 1 % G C r r r r ",
"< p r r r r r r e r e 7 1 @ + e r r r r r r r r r 7 5 = + 4 r r r r r r r r r q 3 : @ * r r r r r r r r r r 7 1 $ + q r r r r r ",
"o % > > = = = = > > > % @ O X @ > > > > = = - > > % @ + X O = > > > > = = > > = @ @ O o @ > > > > = = > > > % @ + o o > > > > = ",
"g g g c 5 X X 1 P P P A Z J c g g g c e X @ c U ] <.t.w.X.c g g g g % X q U U P Z Z Z k g g g c 5 X = A P P J Z J c g g g g r @ ",
"f f f f e % % $.8.O.T h h h h f f f f a > J u.S.W.^.^.^.~.M.P a f f 4 7 8.*. .P h h h s f h f f r = ` 0.O.Q c h Y w.s.>.n a a 4 ",
"w w w w r % & @.Q h r w w w w w w r r r > :.R.^.^.^.^.^.^.^.Z.j w r 7 7 &.K f r w w w w w r w w w >  .` c r e / K.^.^.~.n.j r 7 ",
"r w r r 7 @ % Q V r r w w r r r w r r 7 t H.^.^.^.^.^.^.^.^.^.4.w e 1 1 _ c w r w w r w r r w r 7 * J K r r j H.^.^.^.^.^.e.q 1 ",
"r r e 7 - O % c f r r r r r r r r e 7 3 z.^.^.^.^.^.^.^.^.^.^.F.r 1 * > c p r r r r r r r r e 8 - @ g g r e 3.^.^.^.^.^.^.Z.3 % ",
"7 4 = $ + X X % 4 5 4 4 4 4 4 5 4 - # ;.~.^.^.^.^.^.^.^.^.^.^.E.t @ o X = 4 4 4 4 4 4 4 5 4 = # + X % 4 4 t H.^.^.^.^.^.^.V.= X ",
"o 1 9 7 q q q q 5 5 5 5 5 % X % q q M Y.^.^.^.^.^.^.^.^.^.^.^.~.[ 7 q q 7 5 5 5 5 5 % X = e q q q q 7 5 4 >.^.^.^.^.^.^.^.p.q q ",
"7 #.*.@.~ J P J c c c c c 7 % T 1.,.H.^.^.^.^.^.^.^.^.^.^.^.^.^.x.E P P B c c c c c 1 >  .1.$.` P P J c I I.^.^.^.^.^.^.W.1.I P ",
"n *._ c a w w r r r w r r q 4 *.{ t.~.^.^.^.^.^.^.^.^.^.^.^.^.^.c.p r w r r w r r r 7 q 9.` b h r w w w 6.^.^.^.^.^.^.^.s.h r w ",
"f { g r r r r r r r r r r 7 > ` ` K.^.^.^.^.^.^.^.E.^.^.^.^.^.^.B.r r r r w r r r r 6 5 { c r r w r w M Y.^.^.^.^.^.^.U.n w r w ",
"e K p r r r r r r r r r q > * J l.^.^.^.^.^.^.^.U.V.^.^.^.^.^.^.H.s r r r r r r r 7 = < K f r r r r r h.^.^.^.^.^.^.^.t.r r r r ",
"= q e e w w w w w w q 1 > @ O n R.^.^.^.^.^.^.Q.z.h.~.^.^.^.^.^.U.j w w w w w q 1 - + @ 7 e w w w q ) Q.^.^.^.^.^.^.H.h e w w w ",
"% = > > * % % % > > > = = % % 4.^.^.^.^.^.^.^.C.6.p.Q.^.^.^.^.^.Y.r % % * > > > = = % % % > > > * = n.^.^.^.^.^.^.^.' = > > > % ",
"c c c c 7 X X e  . .~ E E U ] R.^.^.^.^.^.^.!.V.m.M.Q.^.^.^.^.^.!.] * o h ..] ~ U E I N c c c c 5 S ~.^.^.^.^.^.^.H.I c c c g % ",
"r r r r e % = 1.*.` Z a a r i.^.^.^.^.^.^.^.I.M.c.g.E.^.^.^.^.^.~.[ 4 q 0.&.Q c a a a r r r r r j H.^.^.^.^.^.^.Q.[ r r r r r 5 ",
"r r r r e % % O.K f e r w x I.^.^.^.^.^.^.!.S.f.i.p.I.^.^.^.^.^.^.:.4 7 O.G r e w r r w r r r r 5.^.^.^.^.^.^.^.B.s r r r r r 7 ",
"r r r r 7 @ % Q c r r w w 3.^.^.^.^.^.^.^.H.N.s.p.i.H.^.^.^.^.^.^.<.- 1 _ z r r w w r r r r w n U.^.^.^.^.^.^.!.6.r w r r r 7 - ",
"a r 7 5 = O + f a r r r s G.^.^.^.^.^.^.Y.g.v.p.p.i.V.^.^.^.^.^.^.3.@ = g r r r r r r r r e 7 i.^.^.^.^.^.^.^.H.>.a r r w 7 : @ ",
"4 < # @ O . X @ < < < > Y !.^.^.^.^.^.^.n.4.g.6.6.4.z.^.^.^.^.^.^.7.X X % 1 < < < < 1 1 < > u Y.^.^.^.^.^.^.W.p.' 4 < < = @ @ X ",
"o 7 n c h z z h p p p p g.^.^.^.^.^.^.!.c.g.v.i.s.t.g.^.^.^.^.^.^.n.h h f r p p p e % X 1 n z.^.^.^.^.^.^.^.D.s.[ o @ h h c h h ",
"r 8.8.O.I n n c h h g U E.^.^.^.^.^.^.J.g.c.n.f.f.s.s.^.^.^.^.^.^.C.n n c g h h h h 4 4 *.j.~.^.^.^.^.^.^.E.g.f.>.= T 0.$.{ B n ",
"n *.E h r r w r r r q 3.^.^.^.^.^.^.~.v.i.d.v.i.p.e.6.~.^.^.^.^.^.Z.r w r r e e w r 7 q 0.P.^.^.^.^.^.^.^.B.i.p.>.1  .| V p r r ",
"p { f r w w w w r r a Z.^.^.^.^.^.^.Y.s.i.g.v.i.i.e.<.~.^.^.^.^.^.H.s r r r w r r r 1 4 f.^.^.^.^.^.^.^.I.s.i.p.:.- I K e r w w ",
"e F r r r r r r r e R Q.^.^.^.^.^.^.C.i.p.g.v.p.p.e.>.Q.^.^.^.^.^.J.h r r r r r r 7 * 7 I.^.^.^.^.^.^.Q.i.i.p.p.' @ c c r r r r ",
"@ 4 7 7 q q q q 7 7 e.^.^.^.^.^.^.Q.g.i.i.d.c.i.i.5.D W.^.^.^.^.^.I.j 7 q 7 7 6 - = O >.^.^.^.^.^.^.^.g./ i.6.6./ O = 7 7 7 q q ",
"= > < < = o o % 1 7 Z.^.^.^.^.^.^.J.e.5.3.5.h.e.e.5.^ E.^.^.^.^.^.U.1 X % 1 4 4 1 1 j Y.^.^.^.^.^.^.Y.j S t.6.6.-.< > < < < < + ",
"c V c c e O + n %.r.!.^.^.^.^.^.^.C.g.s.3.p.D.M.M.c.2.E.^.^.^.^.^.E.e % T *.#.` U W C.^.^.^.^.^.^.^.c.%.u.M.c.c.t.J c c b c g * ",
"r r r r e * * 1.O.b.^.^.^.^.^.^.W.g.p.p.6.b.S.b.g.i./ Y.^.^.^.^.^.W.n q 0.O.J g e [ !.^.^.^.^.^.^.H.q.&.2.g.s.s.>.r r r r r r 7 ",
"r r r r e % % { T F.^.^.^.^.^.^.B.4.i.i.>.:.x.s.i.i.^ I.^.^.^.^.^.Q.M 4 | b r w h H.^.^.^.^.^.^.^.' T L n 5.p.i.Y w r r r r r 4 ",
"r r r r 1 + % K ..Q.^.^.^.^.^.~.[ s M l - c f.s.p.i.Y K.^.^.^.^.^.Q.i < Q h w w 6.^.^.^.^.^.^.^.L.t c G r x / M r r r r r r 7 = ",
"r e 7 1 = O + e 6.^.^.^.^.^.^.U.x 7 1 = o 7 w.s.p.i.Y H.^.^.^.^.^.Q.i % e r w M Y.^.^.^.^.^.^.~.a.8 5 r r w w w r r r r 7 5 - @ ",
"= = % @ @ O O % B.^.^.^.^.^.^.p.> * @ @ o = >.6.6.4.j Z.^.^.^.^.^.!.i X % > < g.^.^.^.^.^.^.^.Z.3.8 O > > > > > = = = > = @ @ O ",
"@ z W Q I P P ] E.^.^.^.^.^.~.>.I Q I P P W s.g.f.f.~ H.^.^.^.^.^.~.2.B b f :.Q.^.^.^.^.^.^.!.M.k.X.n g g g g g 5 X > U Q U P P ",
"j q.&.` b h a 5.^.^.^.^.^.^.W.y.*...E h s n e.s.s.i.R H.^.^.^.^.^.~.:.a f n K.^.^.^.^.^.^.^.H.x.s.R s f p f p a e =  .0.O.Q h h ",
"k O.V r r r r B.^.^.^.^.^.^.n.&.L g r r w h e.p.p.i.A F.^.^.^.^.^.~.[ q r p.^.^.^.^.^.^.^.U.d.p.i.S w r r r r r r > ` _ c r r r ",
"r _ f r r r M E.^.^.^.^.^.^.[ L V r r r r h e.p.p.i.A Z.^.^.^.^.^.~.[ q ) Q.^.^.^.^.^.^.~.n.i.p.i.Y w r r r r r 7 = J K e r r r ",
"5 c r r r e 4.^.^.^.^.^.^.Y.8 g f r r r r h 5.p.p.e.l V.^.^.^.^.^.~.[ s Z.^.^.^.^.^.^.^.H.s.p.p.i.Y r r r r e 7 - @ g f r r r r ",
"O > 4 4 4 7 B.^.^.^.^.^.^.h.o % 4 4 4 4 4 4 M 4.5.S - B.^.^.^.^.^.~.) 6.^.^.^.^.^.^.^.Y.i.e.e.e.e.n 4 4 4 1 = @ + X @ 4 4 4 4 4 ",
"5 5 7 q > 7 T.^.^.^.^.^.^.5.5 5 7 7 7 1 X O 7 n A r r Z.^.^.^.^.^.~.3.Y.^.^.^.^.^.^.^.M.t.i.i.t.5.7 o e r r r r r q 5 q 7 7 5 o ",
"c c c c e ;.^.^.^.^.^.^.E.] c c c c c f = h 1.*.O.Q P H.^.^.^.^.^.^.Q.^.^.^.^.^.^.^.I.g.g.g.g.g.i.0 b 8.*...P A Z c c c c c z < ",
"w w w w r Z.^.^.^.^.^.^.n.r w w w w w r , W &.Q h r r Z.^.^.^.^.^.^.^.^.^.^.^.^.^.Q.n.i.i.i.i.i.i.u O.O.P g r w w w w w r w r 7 ",
"r r r w Y W.^.^.^.^.^.^.>.w r r r r r w > c _ f r r r Z.^.^.^.^.^.^.^.^.^.^.^.^.~.n.i.p.p.p.p.i.i.t Q K r r r r r r r r r r r 4 ",
"r r r 7 5.^.^.^.^.^.^.Y.n r r r r r r 1 @ f G r r r a Z.^.^.^.^.^.^.^.^.^.^.^.^.n.M >.p.p.p.p.i.6.0 c b r r r r r r r r r r 7 = ",
"e q 1 3 Z.^.^.^.^.^.^.c.e q e q q 5 1 $ o > q q q q r Z.^.^.^.^.^.^.^.^.^.^.^.I.M q :.p.i.i.e.6.3.8 > q q q q q q e e q 7 1 = o ",
"@ = = m Q.^.^.^.^.^.~./ > % @ % > > = = % % = > > > 1 B.^.^.^.^.^.^.^.^.^.^.!.) = > / 4.4.6.5.5.5.t % > > > > > = % @ > > = = % ",
"= I O.C.^.^.^.^.^.^.I.Q b 4 O a .. .` T U U G b c b F D.^.^.^.^.^.^.^.^.^.^.x.F b b [ 3.g.M.M.b.c.+.I c b c c N q O 7  ...` T U ",
"n 0.q.W.^.^.^.^.^.^.d.r r q 1 8.*.` b r r a r r r r a n.^.^.^.^.^.^.^.^.^.V.j r r r :.p.S.N.b.g.p.Y r r r r r r r > O.=.{ J a r ",
"h { u.^.^.^.^.^.^.Q./ w r q 1 ..K p r r w r w r r w r i.~.^.^.^.^.^.^.^.F.M w r w r :.i.M.x.p.i.i.S w r w r w r r > ~ Q f r r w ",
"e Q c.^.^.^.^.^.^.Z.s r e 1 = E c r r r w r r r r r r >.A.^.^.^.^.^.^.V.M w r r r w ' e.b.s.i.p.i.S w r r r r e 5 % G J r r w r ",
"4 f t.^.^.^.^.^.^.5.q 7 1 # @ f p r r r r r r r r q 7 ' a.U.!.^.~.Y.e.h r r r e 7 : m 6.s.p.p.p.i.n r r r r q 2 = @ e p r r r r ",
"o % j I.^.^.^.^.Y.Y > % @ O X % < 1 1 1 < < 1 1 1 = @ D p.C.H.H.Z.t.u > < 1 1 > % @ : -.4.6.6.6.) 4 < 1 > > * @ O X + > 1 < < < ",
"f f f ,.R.!.Q.U.M.:.c c n n f f d f f 5 X o h n n n n 4.n.H.H.H.Z.p.7   4 n n n n c c W 5.t.t.,.7 X % j n n n n n f d f f f e o ",
"h g f A i.p.p.M.S.u.~ n j x h g g g h a = n 0.*. .Z n 4.n.H.H.H.D.d.j 4 1.8.@.Q c z z g h n n h r = ~ 0.$.` n j x h g g h h f 4 ",
"w w w x e.4.5.M.m.X.r r w w w r r r r r 1 U O.G f r r >.c.H.H.H.Z.p.l 7 *.E h r w w w w w w r r r >  .| c p r r w r w r r r r 7 ",
"r w w x 6.4.4.b.x.( r r r r r r r r r w = c Q p r r r >.v.H.H.H.Z.p.j 1 ` c r r w w r r r r r r 7 = K L r r r r r r w r r r r 1 ",
"r r q j 4.3.4.k.d.( w r r r r r r e q 1 @ y c r r r r >.v.H.H.H.Z.7.0 > G a r r w w r r r r e 7 ; @ g c r r r r r r r r w w 1 * ",
"r w 1 0 3.3.3.6.p.) w r r r r r r 5 ; * o * 7 r r w r >.v.H.H.H.B.5.3 o 4 r r r w w r r r e 1 ; @ o * q r r w r r r r r 7 1 = O "
};
