/* XPM */
static char *_2745bf2faa74456fed412a8cb99f6c5GnoOVyT2w6Y4MfF4[] = {
/* columns rows colors chars-per-pixel */
"64 64 213 2 ",
"   c #1F3F69",
".  c #203F67",
"X  c #375C5B",
"o  c #3D605A",
"O  c #214166",
"+  c #294866",
"@  c #24446A",
"#  c #26486C",
"$  c #2B4C6D",
"%  c #2E5064",
"&  c #2E506D",
"*  c #385C67",
"=  c #31526D",
"-  c #36596D",
";  c #264670",
":  c #2C4D71",
">  c #314E74",
",  c #2F5074",
"<  c #2F547A",
"1  c #325375",
"2  c #365974",
"3  c #3B5B73",
"4  c #34567A",
"5  c #39577B",
"6  c #37597C",
"7  c #3A5C7D",
"8  c #3F616A",
"9  c #3E6273",
"0  c #3F607F",
"q  c #436859",
"w  c #4C735C",
"e  c #466A67",
"r  c #456A6C",
"t  c #4D726B",
"y  c #537A64",
"u  c #56796A",
"i  c #496A78",
"p  c #4F7275",
"a  c #577977",
"s  c #5A7A7C",
"d  c #6B963B",
"f  c #78A637",
"g  c #7DAB3D",
"h  c #5C8648",
"j  c #5B8355",
"k  c #648E4C",
"l  c #6D9846",
"z  c #729D4A",
"x  c #628B50",
"c  c #689255",
"v  c #759C5D",
"b  c #789E5A",
"n  c #7BA940",
"m  c #7AA64A",
"M  c #76A257",
"N  c #7DA653",
"B  c #7EA953",
"V  c #79A258",
"C  c #5C8268",
"Z  c #5E8073",
"A  c #5C817C",
"S  c #678D61",
"D  c #658A6D",
"F  c #6A8E6B",
"G  c #6C9466",
"H  c #719662",
"J  c #729961",
"K  c #628473",
"L  c #638A75",
"P  c #689274",
"I  c #6C937D",
"U  c #759B76",
"Y  c #7BA867",
"T  c #7CAA76",
"R  c #86B52A",
"E  c #80AE3E",
"W  c #89B73A",
"Q  c #91BD3E",
"!  c #9CCD1C",
"~  c #A9DD15",
"^  c #A4D81A",
"/  c #ACDF1E",
"(  c #B7ED0C",
")  c #BDF30C",
"_  c #AFE317",
"`  c #AEE21C",
"'  c #B1E614",
"]  c #B6EB14",
"[  c #B4E91B",
"{  c #BDF511",
"}  c #97C826",
"|  c #9DCD2E",
" . c #9FD122",
".. c #97C635",
"X. c #9BCB31",
"o. c #94C239",
"O. c #A4D625",
"+. c #A7D924",
"@. c #A9DB22",
"#. c #A2D32B",
"$. c #A8DA28",
"%. c #A6D735",
"&. c #B3E824",
"*. c #C0F707",
"=. c #C6FF00",
"-. c #C8FF00",
";. c #C0F708",
":. c #C1FA09",
">. c #81AE42",
",. c #83AD4D",
"<. c #86B445",
"1. c #88B446",
"2. c #8EBA42",
"3. c #85B24A",
"4. c #89B64A",
"5. c #87B94A",
"6. c #8CBB4B",
"7. c #92BF4D",
"8. c #80A950",
"9. c #89B952",
"0. c #83B15B",
"q. c #89B863",
"w. c #8CB76A",
"e. c #81AC78",
"r. c #89B777",
"t. c #91C148",
"y. c #94C353",
"u. c #97C955",
"i. c #9DCB5B",
"p. c #9ED05C",
"a. c #A2D44E",
"s. c #A3D25E",
"d. c #96C469",
"f. c #9BC773",
"g. c #A6D661",
"h. c #3C5D81",
"j. c #3D6183",
"k. c #3F6488",
"l. c #415F82",
"z. c #426384",
"x. c #446C80",
"c. c #4C6C85",
"v. c #45668A",
"b. c #4A678D",
"n. c #45698C",
"m. c #4A698D",
"M. c #516E86",
"N. c #506D88",
"B. c #4F728D",
"V. c #537384",
"C. c #577981",
"Z. c #54768A",
"A. c #4A6590",
"S. c #476992",
"D. c #4C6D91",
"F. c #516E93",
"G. c #4C7294",
"H. c #4E769A",
"J. c #4E799A",
"K. c #527496",
"L. c #587797",
"P. c #54769A",
"I. c #547B9B",
"U. c #547D9D",
"Y. c #5A7C9C",
"T. c #607F9E",
"R. c #567CA0",
"E. c #5D7EA1",
"W. c #5B8382",
"Q. c #5E8988",
"!. c #5E8197",
"~. c #56809E",
"^. c #5D829D",
"/. c #658A87",
"(. c #6F9583",
"). c #769B85",
"_. c #668998",
"`. c #699397",
"'. c #739B98",
"]. c #79A287",
"[. c #7CA799",
"{. c #5780A1",
"}. c #5C83A2",
"|. c #5E8AA6",
" X c #6384A4",
".X c #6589A7",
"XX c #698DA6",
"oX c #6486A9",
"OX c #648CA9",
"+X c #6A8CAB",
"@X c #6491AC",
"#X c #6C91AE",
"$X c #789CAD",
"%X c #6792B1",
"&X c #6C94B1",
"*X c #6E99B3",
"=X c #7395B3",
"-X c #749AB6",
";X c #7899B6",
":X c #7495B8",
">X c #769CBA",
",X c #7B9DBA",
"<X c #7DA2BD",
"1X c #7FA2C0",
"2X c #8DB898",
"3X c #809FBC",
"4X c #84ABA7",
"5X c #8BB3AA",
"6X c #90B7AB",
"7X c #81A3BE",
"8X c #83A6C3",
"9X c #84AAC3",
"0X c #87AAC7",
/* pixels */
"@ > l.l.z.z.z.j.6 7 7 6 7 1 @ @ 7 j.l.z.j.z.h.7 7 6 6 6 @ O 1 l.l.z.z.l.l.7 6 6 6 6 : O # h.z.z.z.z.j.7 7 6 6 7 4 @ O 4 z.z.l.l.",
">  X<X;X=X X X XY.U.U.U.U.D.: m.,X,X-X.X X X{.U.U.U.U.I.4 1 +X<X>X+X X X XU.U.U.U.U.v.: K.<X,X=X.X X XE.U.U.U.U.H., 7 ;X,X>X+X X",
"l.8X-X}.K.m.m.m.m.m.m.m.m.m.6 #X<XXXI.D.m.m.m.m.m.m.m.m.z.m.9X*X}.K.m.m.m.m.m.m.m.m.m.5 ;X<X.XI.m.b.m.m.m.m.m.m.m.h.Y.9X&XY.G.b.",
"7 *X{.m.m.m.m.m.m.m.m.m.b.n.4 }.@XG.m.m.m.m.m.m.m.m.m.m.h.z.*XU.m.m.m.m.m.m.m.m.b.b.b.4 +X|.D.b.m.m.m.m.b.m.m.m.m.7 G.*XH.m.n.m.",
"4 |.H.m.m.m.m.m.m.m.m.m.b.7 $ I.}.m.m.m.m.m.m.m.m.m.m.v.1 h.OXH.m.m.m.m.m.m.m.m.m.b.7 : ^.~.m.m.m.m.m.m.m.m.m.n.z., n.|.D.m.m.m.",
": n.n.n.m.m.m.m.m.n.m.z.7 1 @ j.m.m.n.n.b.m.m.m.m.v.h.2 # , n.m.m.n.m.m.m.n.n.n.z.7 = # j.n.m.m.m.b.b.m.m.m.z.h.1 # 4 n.m.m.n.m.",
"# : 4 4 1 , , 1 2 4 4 1 : $ # # 1 4 4 4 1 > 1 2 4 1 : : # # : 4 4 4 1 , 1 4 6 4 , : # # # 2 4 4 4 1 > 4 4 4 1 : : # # , 4 4 4 1 ",
"U.I.I.I.G.# O 1  X+XXX X X XY.I.I.I.I.H.: @ K.+X+X X X X}.I.I.I.I.I.j.@ 6 .X+X.X X X XY.I.I.I.I.G.# # Y.+X.X X X X}.I.I.I.I.I.6 ",
"D.D.D.D.m.6 @ +X9X-XXXL.K.F.F.D.D.D.D.D.h.n.0X,X&XE.F.D.D.D.D.D.D.D.n.< =X1X:XoXG.D.F.D.D.D.D.D.D.h.L.0X,X#XY.F.F.G.D.D.D.D.D.n.",
"m.b.m.b.m.h.# .X&XI.m.m.m.m.m.m.b.b.M.K S v f.q.0.,.,.,.,.,.,.,.8.B N l w.w.Y J H H H H H G D M.b.h.P.-X{.D.n.m.m.m.b.m.m.m.m.m.",
"m.b.m.m.v.1 @ U.|.m.m.b.b.m.m.b.s 8.O.) :.-.-.-.-.-.-.-.-.-.-.-.-.-.-.-.-.-.-.-.-.-.-.-.-.:.;.#.a 1 n.@XG.m.m.m.b.b.b.m.m.m.b.z.",
"m.m.n.v.5 $ @ D.K.m.m.m.m.m.D.F ` -.-.-.-.-.-.-.-.-.-.-.-.-.-.-.-.-.-.-.-.-.-.-.-.-.-.-.-.-.-.-.W $ j.I.D.m.m.m.m.m.m.D.m.v.7 1 ",
"z.h.2 & $ O   # 6 h.h.h.h.h.p ` -.-.-.-.-.-.-.-.-.-.-.-.-.-.-.-.-.-.-.-.-.-.-.-.-.-.-.-.-.-.-.-.^ % @ 4 h.h.h.h.h.h.h.h.7 1 $ @ ",
"@ 1 m.m.m.m.D.m.v.v.v.v.v.6 d -.-.-.-.-.-.-.-.-.-.-.-.-.-.-.-.-.-.-.-.-.-.-.-.-.-.-.-.-.-.-.-.-.%.B.m.n.z.v.v.n.j.@ @ h.D.D.m.m.",
"1 #X8X,X#X}.E.E.I.I.I.I.I.B.} -.-.-.-.-.-.-.-.-.-.-.=.*.=.-.-.=.=.=.-.-.-.-.-.-.-.-.-.-.-.-.-.] U E.E.I.I.I.I.I.K.4 z.<X1X-X.XE.",
"j.<X&XY.G.n.b.m.m.b.b.b.m.V.` -.-.-.-.) Q V ,.......V G <.X.i.T J J v v b V N N B B B n %.u.0.K m.b.b.b.b.m.b.b.m.h.Y.<XXXP.D.m.",
"6 #X~.m.m.m.m.m.m.m.m.m.m.V.` -.-.-.-.@.N.A.s 3.1.3.s n.c <.r.I.n.b.A.b.A.b.b.b.b.n.v.2 q.`.D.b.m.m.m.m.m.m.m.m.n.6 D.#XG.m.m.b.",
"4 }.H.m.m.m.m.m.m.m.m.m.v.i ~ -.-.-.-.+.M.m.s 3.1.3.s z.k E T G.m.m.m.m.m.m.m.m.m.v.5 = 0.Q.m.m.m.m.m.m.m.m.m.n.0 : n.}.m.m.m.m.",
": h.v.v.v.b.b.b.v.v.v.7 6 * ~ -.-.-.-.+.c.v.a 3.<.>.r 1 h f S v.v.v.b.b.b.v.v.v.7 2 $ % z a n.v.b.v.v.b.v.v.z.5 1 @ : v.v.b.v.v.",
"> , 6 6 4 # : : 4 6 6 4 4 3 ~ -.-.-.-.^ = ; e n g g e 1 x f j 6 4 4 , # : 4 6 6 2 1 4 - l r 4 6 4 : # 1 6 7 4 2 1 , : 4 6 6 4 : ",
"E.U.U.U.H.# @ 7 =X;X=X.XoX_.&.-.-.-.-.@.- : /.i.i.u.'.oXe.t.U R.U.U.k.@ z.;X;X#X.XoXoX_.0./.R.R.H.: 1 .X;X=X+X X X}.U.U.U.U.U.j.",
"D.m.m.m.m.7 @ #X9X*X}.G.D.Z.` -.-.-.-.` i m.6Xi.y.5.s D.C.F V.m.m.m.m.4 ;X<X#X^.D.m.D.V.B s D.D.m.7 Y.9X-X XK.m.m.m.m.m.m.m.m.m.",
"m.m.m.m.m.7 @  X%XH.n.m.m.M.@.-.-.-.-.` i v.[.9.1.3.s b.b.b.m.m.m.m.v.4 +XOXG.n.m.m.b.V.N s b.D.m.h.K.*XI.m.m.m.b.m.m.m.m.m.m.n.",
"m.b.m.m.v.1 @ I.}.m.m.m.b.M.@.-.-.-.-._ 8 h.'.5.1.3.s b.m.b.m.m.m.b.7 : {.{.m.m.n.b.b.V.N s b.m.v.1 n.OXD.b.b.b.b.m.b.m.b.m.b.7 ",
"D.m.v.z.2 # @ n.G.m.m.m.b.c.#.-.-.-.-.' * < W.3.1.3.s b.m.m.m.m.v.7 1 # n.D.m.m.m.m.m.V.N s v.z.2 $ h.G.m.m.m.m.m.m.m.m.m.v.7 = ",
"7 6 1 $ # @ @ @ 4 6 6 6 6 6 } -.-.-.-.( X   e n g n r 6 6 6 6 4 : $ # @ # 6 6 6 6 6 6 9 z r , $ # @ @ 1 5 6 6 6 6 4 4 6 4 : $ @ ",
"@ 7 Y.Y.Y.I.Y.I.G.G.G.G.G.j.R -.-.-.-.) I P./.4.4.4.W.S.: @ z.E.Y.Y.I.I.I.G.G.G.G.G.6 % l /.Y.Y.Y.Y.I.H.G.G.G.G.n.# @ m.Y.Y.Y.Y.",
"7 ,X8X-X.XL.L.L.H.G.K.K.K.m.W -.-.-.-.:.I P./.4.4.4.W.G.h.z.8X8X:XoXP.P.P.G.G.G.G.G.A.2 q.5X,X#XY.L.P.K.G.G.G.G.G.6 D.9X<X=X}.L.",
"l.,X+XP.m.m.b.b.m.m.m.m.m.n.<.-.-.-.-.:.F A.s 3.<.3.s c.i A 2Xe.Y N B ,.,.,.,.,.,.,.,.g a.'.U.m.m.m.m.m.b.m.m.m.m.h.L.<X}.G.m.m.",
"5 &XU.m.b.b.b.m.m.m.m.m.m.v.m -.-.-.-.=.,.D V X.O.@.#.+.' ( :.=.-.-.-.-.-.-.-.-.-.-.-.-.=.6.m.m.m.m.b.b.b.m.m.m.n.4 m.%XG.n.m.m.",
"4 {.G.m.m.m.m.m.m.m.m.m.v.C ~ -.-.-.-.-.:.:.:.-.-.-.-.-.-.-.-.-.-.-.-.-.-.-.-.-.-.-.-.-.-.) K m.m.m.m.m.m.m.m.n.7 $ z.~.D.m.m.m.",
"# 4 z.z.z.v.v.v.z.z.z.6 8 ^ -.-.-.-.-.-.-.-.-.-.-.-.-.-.-.-.-.-.-.-.-.-.-.-.-.-.-.-.-.-.-.*.S z.z.v.v.z.z.z.7 2 $ @ # h.z.z.z.v.",
"7 6 h.h.6 # # # 7 z.z.h.C *.-.-.-.-.-.-.-.-.-.-.-.-.-.-.-.-.-.-.-.-.-.-.-.-.-.-.-.-.-.-.-.] t h.6 # @ 4 z.z.z.j.h.h.6 7 h.h.h.: ",
"~.U.U.U.H.: @ m.,X,X-X.X).) -.-.-.-.-.-.-.-.-.-.-.-.-.-.-.-.-.-.-.-.-.=.=.=.=.=.=.-.=.=.] Y U.U.H., 7 =X3X;X+X X X}.U.U.U.U.U.j.",
"m.m.m.m.m.7 @ #X<X+XI.D.c.2.-.-.-.-.-.-.-.-.-.-.-.=.) ' +.+./ +.#.| ..l r.a.Y G V ......D m.m.m.m.7 Y.9X&XY.G.n.m.m.m.m.m.m.m.n.",
"m.m.m.m.m.6 @ }.@XG.m.m.b.M.8.;.-.-.-.-.' <.u.#.| o.D V.c.D 1.3.3.<.<.e XXq.C.A.s 3.3.3.s m.m.m.m.7 K.&XH.b.b.m.b.b.m.m.m.m.m.v.",
"m.m.m.m.z., @ I.}.m.m.m.m.b.V.' -.-.-.-.! j.OXP N F c.b.b.K 1.1.1.1.g q ^.q.s b.s 3.1.3.s b.m.m.z., n.OXD.b.m.m.b.m.m.m.m.m.v.7 ",
"m.b.v.7 2 # O j.m.m.m.m.b.b.V.` -.-.-.-.~ 3 n.n.c.m.b.m.b.K 1.1.<.g f q x.B s b.s 3.1.3.s b.v.7 2 # 4 m.m.m.m.m.b.m.m.m.v.z.5 & ",
"4 1 1 $ $ @ # # 1 4 4 4 4 4 2 ^ -.-.-.-.( o : 4 4 4 4 4 4 w g g f f f q = l r 4 r g g f e 4 1 $ $ # @ , 4 4 4 4 4 1 1 4 4 : : # ",
"# v.+X+XoX X X XI.J.J.J.J.v.+ } -.-.-.-.:.U R.I.J.J.J.H.: q 1.u.u.y.y.)._.0.Q.H.Q.9.<.d t oX+X.X X X XU.J.J.J.J.D.# : Y.+X+X X X",
"7 7X<X*X XK.K.K.D.D.D.D.G.m.2 ..-.-.-.-.-.V D.D.D.D.D.D.h.y g.s.u.y.4.L Z.B W.D.A <.1.n 4X9X-X.XK.K.F.D.D.D.D.D.D.7 K.0X,X#XY.K.",
"7 -X|.G.m.m.m.m.m.m.m.m.m.m.5 t.-.-.-.-.-.2.b.m.m.m.m.m.z.y p.y.4.1.1.Z M.N s b.M.b 3.c $X@XH.m.m.b.b.m.m.m.m.m.m.h.L.-X~.D.m.m.",
"5 OXI.m.m.m.m.m.m.m.m.m.m.v.- <.:.-.-.-.-.O.c.m.m.m.m.n.6 y u.5.1.4.1.K M.N s b.m.M.p - }.}.m.m.m.m.m.m.m.m.m.m.v.2 n.@XG.m.m.m.",
"1 I.D.m.m.m.m.m.m.m.m.n.v.2 % m { -.-.-.-.) K b.m.n.v.7 : w 6.4.<.4.4.K V.N s b.b.z.1 : H.G.m.m.m.m.m.m.m.m.n.v.5 $ j.I.m.m.m.m.",
"@ : h.h.h.h.h.h.h.h.h.1 & # + l ^ -.-.-.-.-.m h.h.5 , $ @ q g >.>.>.>.u i z p h.1 $ # @ : 7 h.h.h.h.h.h.h.h.4 , # O @ 4 h.h.h.h.",
"v.z.z.v.h.@ @ @ v.m.m.m.m.m.c.M | -.-.-.-.-.O.V.m.m.m.m.m.C <.<.<.<.g o % N s m.m.m.m.v.k.v.v.z.j.@ @ h.m.m.m.m.m.n.k.v.v.v.k., ",
"I.I.I.I.H.4 @ P.8X<X-X X^.^.!.0.t.) -.-.-.-.=.f.>X+X^. XE.I 6.6.6.6.<.q _.f.4X=X XE.E.U.I.I.I.I.K.4 v.<X7X-X.XT.Y.Y.I.I.I.I.I.v.",
"m.b.m.b.m.h.@ #X>X}.K.m.n.b.c.N 1.@.-.-.-.-.-.{ 0.Z.n.b.n.K 1.1.1.1.<.e $Xd._.G.A.b.b.n.c.V.s s K u (.5X`.P.D.b.b.b.b.b.m.b.m.m.",
"m.m.m.m.n.6 @ }.OXD.m.m.m.m.N.N 1.o.*.-.-.-.-.-.*.O.N F Z H Q 2.2.Q W j ].u.v H V ,.Q X.+._ ] ) ) ) ) ) $.K b.m.m.m.m.m.m.m.m.v.",
"m.m.m.n.0 $ O J.{.m.m.m.m.m.c.B 1.1.@.-.-.-.-.-.-.-.-.:.) ) ) ) ) ) ) ( ) :.:.-.-.-.-.-.-.-.-.-.-.-.-.-.-.+.V.m.m.m.m.m.m.m.v.5 ",
"m.v.j.5 = @ O 4 v.v.v.v.v.v.c.N 1.<.W ' -.-.-.-.-.-.-.-.-.-.-.-.-.-.-.-.-.-.-.-.-.-.-.-.-.-.-.-.-.-.-.-.-.) Z v.v.v.v.v.z.7 2 # ",
": : 4 1 1 > > 1 4 4 4 4 4 1 $ k g g g W _ -.-.-.-.-.-.-.-.-.-.-.-.-.-.-.-.-.-.-.-.-.-.-.-.-.-.-.-.-.-.-.-.] r 6 4 : # 1 5 2 2 1 ",
"# K.;X=X#X X X XU.U.U.U.U.n.# u d.i.d.r.q.%.) -.-.-.-.-.-.-.-.-.-.-.-.-.-.-.-.-.-.-.-.-.-.-.-.-.-.-.-.-.:.9.U.U.H.: 1 .X;X=X+X X",
"h.8X<X+XY.D.D.D.m.m.m.m.m.m.4 +X5X[._.P V B o./ ) -.-.-.-.-.-.-.-.-.-.-.-.-.-.-.-.=.) ( [ &.[ ` ` ` | Q v N.m.m.m.7 I.0X-X XP.D.",
"7 -X}.D.m.m.m.m.m.m.m.m.m.m.4  X#XH.n.D V N 1.1.Q 2.8.| O. .[ ] ] ] ' +.` / +.O.1.H D t '.].4.1.1.1.K b.b.m.m.m.m.7 K.*XI.m.m.m.",
"6 OXI.m.m.m.m.b.m.m.m.m.m.z.: I.}.m.b.D V N 1.1.1.J b.Z t r y.6.1.1.,.K 3.1.3.3.K v.h.: }.`.3.<.1.1.K b.m.m.m.m.v.1 n.OXD.m.b.m.",
", G.D.m.m.m.m.m.m.m.m.v.z.1 # n.G.m.m.D V N 1.1.1.v z.5 $ 4 P ,.3.B K C.3.1.1.1.Z 7 = # S.W.3.1.4.1.K m.m.m.v.z.2 # 7 G.m.m.m.m.",
"@ : 6 6 6 6 6 6 6 7 7 1 $ # @ # 4 7 6 9 r z g g E x $ $ @ @ : 9 r 9 6 5 k g g l * $ # @ # r n g g g y 6 6 6 1 : # @ @ , 6 6 6 6 ",
"G.G.G.G.n.@ O # L.Y.Y.Y.Y.Y.K.G.G.G.G.S.& d <.7.7.Y Y.Y.I.G.G.G.G.G.6 . - ).]._.Y.Y.Y.H.G.W.4.5.1.f q m.Y.Y.Y.Y.Y.P.G.G.G.G.G.4 ",
"K.G.K.K.G.4 @  X9X,X*XY.L.L.L.H.H.H.K.G.z.m s.s.i.e.L.I.P.H.H.H.H.H.n.1 +X8X;X#XY.P.P.K.G.W.4.4.4.g I 8X<X=X}.L.L.L.H.H.K.K.G.n.",
"m.b.m.m.m.7 @ +X-X{.D.m.b.b.b.m.m.m.m.m.x.N s.y.4.J m.b.b.b.m.m.m.m.m.4 =X*XI.D.m.b.b.b.b.s 3.1.1.g ).>X}.G.m.m.b.m.b.m.m.m.m.m.",
"m.b.m.m.n.2 @ Y.OXD.m.m.m.m.m.m.m.m.m.m.7 c u.6.1.D m.m.m.b.m.m.m.m.z.,  X}.m.m.b.b.m.m.b.s 3.1.1.g I %XG.m.m.m.m.m.b.m.m.m.m.z.",
"m.m.m.v.7 $ O G.I.m.m.m.m.m.m.m.m.m.n.h.: 9 Y V G c.m.m.m.m.m.m.n.x.2 $ I.K.m.m.b.b.m.m.b.s 3.1.E f L R.m.m.m.m.m.m.m.m.m.b.z.2 ",
"m.m.z.2 1 @ @ , v.m.m.b.m.m.m.m.m.z.2 1 @ # j.c.m.b.m.m.m.m.m.b.7 2 $ @ 4 b.m.b.b.b.m.m.b.s >.g f f w j.m.b.b.m.m.m.m.m.b.5 2 $ "
};
